<?xml version="1.0" standalone="no"?>
<!DOCTYPE svg PUBLIC "-//W3C//DTD SVG 20010904//EN"
 "http://www.w3.org/TR/2001/REC-SVG-20010904/DTD/svg10.dtd">
<svg version="1.0" xmlns="http://www.w3.org/2000/svg"
 width="1108.000000pt" height="1533.000000pt" viewBox="0 0 1108.000000 1533.000000"
 preserveAspectRatio="xMidYMid meet">
<metadata>
Created by potrace 1.12, written by Peter Selinger 2001-2015
</metadata>
<g transform="translate(0.000000,1533.000000) scale(0.100000,-0.100000)"
fill="#000000" stroke="none">
<path d="M0 7665 l0 -7665 3293 2 c1810 1 3274 3 3252 5 -297 27 -542 144
-778 372 -207 200 -361 419 -517 735 -152 309 -188 429 -197 656 -6 155 7 293
43 460 27 122 82 302 116 379 42 95 99 279 114 365 24 137 0 280 -72 433 -55
115 -161 193 -314 231 -74 18 -269 33 -350 27 -41 -3 -102 -8 -135 -10 l-60
-5 75 24 c327 102 468 287 404 531 -30 117 -106 202 -208 235 -54 17 -185 8
-266 -20 l-64 -22 -20 29 c-48 69 -147 155 -219 189 -251 119 -575 26 -651
-186 -25 -70 -19 -166 16 -241 32 -70 138 -183 223 -240 36 -24 65 -47 65 -52
0 -17 -144 1 -215 27 -130 47 -249 154 -316 284 -32 63 -34 72 -34 172 0 111
10 144 66 229 l22 33 -34 -7 c-77 -17 -157 -80 -194 -154 -57 -113 -9 -278
132 -453 35 -43 60 -78 56 -78 -10 0 -134 71 -208 119 -83 55 -186 149 -226
208 -38 55 -69 144 -69 198 0 46 23 121 53 175 24 42 108 132 158 169 l35 26
-121 0 c-118 0 -123 1 -170 30 -67 41 -100 106 -98 190 3 101 60 196 136 224
30 12 109 14 143 5 20 -5 20 -6 -8 -34 -73 -74 14 -199 107 -152 63 31 97 102
97 202 2 158 -115 248 -308 238 -72 -4 -89 -9 -139 -39 -183 -110 -243 -419
-151 -775 16 -62 126 -341 152 -384 23 -39 -91 85 -178 194 -270 336 -399 634
-399 921 0 185 40 322 152 512 33 56 69 125 80 153 23 62 24 138 3 188 l-17
37 -14 -65 c-8 -39 -26 -85 -46 -113 -41 -62 -130 -122 -203 -137 -177 -37
-294 75 -294 280 0 80 33 154 88 200 48 40 56 38 30 -7 -45 -75 -16 -188 54
-212 78 -28 138 -4 183 73 35 60 52 123 64 246 22 204 97 430 183 553 11 16
18 30 16 33 -3 2 -29 0 -58 -6 -66 -13 -251 -13 -316 -1 -78 15 -160 49 -230
96 -56 38 -66 41 -71 27 -45 -128 -117 -187 -246 -199 -147 -13 -340 98 -376
218 -14 46 -17 134 -6 168 6 20 8 19 33 -12 51 -61 120 -107 162 -107 63 0
155 71 166 127 12 64 -86 178 -185 217 -102 40 -269 8 -408 -78 -40 -25 -73
-43 -73 -40 0 3 15 39 34 80 39 82 116 168 182 202 136 69 292 67 408 -6 42
-26 126 -108 126 -123 0 -5 5 -9 10 -9 16 0 11 121 -7 173 -22 61 -73 121
-127 150 -35 19 -56 22 -151 21 -94 0 -120 -4 -181 -27 -39 -15 -74 -27 -77
-27 -16 0 70 123 106 153 92 75 181 101 327 95 85 -3 103 -7 170 -40 95 -46
154 -97 186 -159 39 -77 41 -123 9 -215 -55 -158 -30 -268 73 -331 124 -74
364 -71 536 7 71 31 161 110 193 168 l23 40 -88 -45 c-107 -54 -178 -68 -264
-53 -148 27 -230 121 -229 264 1 90 36 155 113 208 45 30 59 36 53 22 -20 -49
-36 -143 -31 -182 19 -142 116 -165 299 -70 99 52 221 167 292 276 91 142 188
374 228 548 l15 62 -32 -9 c-47 -13 -129 -11 -168 5 -19 8 -49 30 -67 48 -32
33 -76 106 -68 114 2 2 28 0 57 -6 70 -13 149 -13 191 2 144 48 165 172 74
448 -37 114 -47 160 -48 215 -1 113 20 145 206 308 88 78 117 126 117 192 0
67 -22 109 -101 192 -83 88 -141 174 -165 245 -13 40 -16 75 -12 162 6 130 41
247 101 337 39 58 150 171 285 289 102 89 173 173 214 253 73 146 22 296 -137
403 -27 19 -47 34 -44 34 3 0 41 -11 85 -24 305 -93 414 -237 340 -448 -45
-127 -121 -224 -366 -470 -245 -244 -270 -278 -278 -379 -10 -126 106 -247
270 -281 51 -11 59 -10 104 13 63 31 84 71 84 159 0 36 -7 92 -15 125 -21 89
-20 98 10 91 178 -45 264 -144 285 -331 10 -85 -5 -166 -45 -245 -31 -62 -158
-189 -218 -219 l-38 -19 63 -51 c222 -182 374 -148 409 90 11 77 9 160 -6 204
-11 32 100 -92 160 -180 64 -92 104 -198 105 -271 0 -156 -114 -264 -303 -286
-102 -11 -131 -30 -135 -85 -3 -36 1 -43 51 -90 72 -68 118 -83 190 -60 59 19
123 69 170 131 l30 41 -6 -110 c-13 -225 -80 -407 -174 -471 -90 -61 -259 -78
-346 -35 -59 29 -109 94 -132 171 -27 91 -25 88 -40 59 -8 -15 -18 -51 -23
-82 -16 -100 19 -179 105 -238 46 -32 162 -78 196 -79 15 0 13 -6 -13 -32 -18
-17 -57 -67 -87 -110 -30 -43 -119 -145 -197 -226 -208 -216 -260 -285 -304
-405 -66 -176 31 -427 187 -482 60 -21 115 -19 192 9 335 118 675 664 787
1262 43 229 47 338 28 766 -9 216 -28 587 -42 823 -34 573 -25 785 46 1112 52
238 106 394 295 858 68 168 78 199 82 270 5 68 2 87 -15 121 -71 140 -315 250
-602 272 l-95 7 115 43 c173 64 246 82 347 89 79 5 102 3 163 -17 39 -13 97
-40 128 -60 112 -72 212 -211 228 -316 l6 -46 32 39 c116 144 169 181 352 254
220 87 329 149 544 308 161 119 232 189 264 261 37 81 53 207 38 295 -31 189
-184 367 -372 433 -61 21 -62 22 -20 16 98 -13 228 -43 282 -64 171 -64 308
-216 355 -391 22 -85 22 -253 -1 -337 -36 -136 -101 -246 -208 -352 -84 -85
-163 -142 -470 -341 -377 -245 -534 -366 -685 -529 -230 -248 -382 -606 -447
-1055 -33 -229 -39 -396 -30 -855 5 -245 9 -650 8 -900 -1 -408 -3 -471 -22
-608 -57 -403 -151 -667 -355 -997 -197 -319 -380 -504 -613 -619 -156 -76
-360 -121 -529 -114 l-103 3 32 -23 c44 -34 154 -88 204 -102 273 -73 531 14
835 283 172 152 401 465 520 708 184 379 319 889 382 1442 l16 138 -25 102
c-67 280 -97 529 -96 817 0 283 28 496 96 711 62 199 352 738 523 974 232 321
445 534 807 807 296 224 391 345 435 555 17 79 20 122 16 223 -7 180 -45 297
-134 415 -78 101 -267 232 -342 236 -14 1 6 5 44 10 77 9 172 4 250 -13 238
-51 385 -287 389 -624 l1 -120 29 35 c66 83 95 188 85 312 -10 123 -55 235
-161 399 -56 87 -84 187 -98 346 -18 208 16 335 122 449 86 93 216 162 357
190 55 11 -544 13 -3681 14 l-3748 1 0 -7665z m3019 4308 c71 -34 136 -102
175 -183 28 -59 31 -74 31 -165 0 -116 1 -114 -139 -271 -100 -114 -249 -311
-280 -372 -85 -168 -93 -359 -23 -527 29 -71 100 -179 156 -239 63 -67 72 -84
62 -128 -11 -46 -41 -88 -84 -118 -44 -30 -91 -99 -118 -175 -18 -49 -23 -83
-23 -180 -1 -132 9 -165 74 -251 37 -48 48 -106 30 -158 -13 -41 -30 -48 -30
-12 0 32 -50 82 -91 90 -17 3 -59 6 -94 6 -126 0 -250 -97 -394 -310 -133
-195 -244 -270 -399 -270 -88 0 -148 17 -200 56 -30 23 -55 63 -46 73 1 1 26
-5 55 -14 142 -47 287 31 368 200 46 94 120 195 186 253 26 23 84 59 128 80
188 91 260 207 261 422 0 96 -20 148 -74 193 -61 52 -200 65 -260 24 -73 -48
-95 -141 -45 -184 27 -24 88 -32 100 -13 3 5 -1 20 -9 32 -21 30 -20 50 4 81
39 49 137 42 165 -14 27 -51 13 -141 -36 -224 -69 -116 -182 -143 -398 -96
-87 20 -110 21 -142 12 -43 -13 -83 -56 -112 -120 l-19 -43 -46 83 c-49 88
-70 103 -102 74 -16 -15 -51 -94 -74 -168 -5 -16 -9 -15 -32 12 -32 39 -58 53
-79 45 -20 -8 -51 -68 -60 -116 l-7 -37 -37 40 c-21 21 -42 39 -48 39 -17 0
-50 -44 -63 -83 l-12 -38 -34 31 c-65 57 -119 32 -131 -60 -5 -36 -7 -39 -22
-27 -16 14 -28 19 -83 31 -42 9 -68 -22 -68 -81 l-1 -48 -29 35 c-54 66 -74
118 -78 207 -5 105 20 184 89 282 81 115 199 202 346 255 191 67 254 118 307
243 103 249 342 421 720 518 l89 22 22 69 c63 198 180 369 410 599 183 182
225 241 243 342 17 95 -14 203 -79 278 l-34 38 30 -7 c17 -4 54 -19 84 -33z
m-729 -2540 c0 -5 -27 -16 -60 -27 -101 -31 -151 -65 -265 -176 -125 -123
-165 -146 -315 -185 -206 -54 -249 -98 -275 -277 -18 -120 -30 -162 -67 -223
-61 -103 -130 -130 -310 -122 -144 6 -189 -2 -208 -37 -18 -34 -9 -100 23
-166 14 -30 25 -56 23 -57 -7 -7 -147 99 -174 133 -84 102 -49 252 66 284 54
15 76 13 158 -15 85 -29 111 -30 158 -11 27 11 76 62 76 78 0 2 -33 4 -72 5
-89 2 -139 19 -243 82 -44 27 -97 54 -118 61 -72 23 -129 -5 -155 -75 -19 -54
-23 -178 -7 -236 49 -177 50 -240 2 -310 -75 -109 -191 -127 -311 -48 -61 41
-86 90 -85 166 1 89 11 103 32 43 23 -63 61 -90 130 -90 100 0 138 56 82 121
-40 49 -57 145 -36 202 l10 25 -83 0 c-135 0 -195 37 -235 142 -28 74 -28 147
2 191 28 42 97 78 168 86 l54 6 -26 -29 c-104 -117 -91 -183 40 -192 l57 -4
27 51 c63 115 133 165 232 164 71 -1 96 -12 185 -84 88 -71 171 -109 237 -109
74 0 104 29 163 156 49 105 102 174 152 200 22 11 59 14 161 12 154 -3 163 0
287 102 116 96 219 141 362 159 84 11 158 13 158 4z m1441 -1417 c36 -48 38
-123 5 -189 -33 -68 -56 -89 -147 -135 -88 -44 -109 -74 -85 -121 20 -38 55
-50 73 -25 7 10 13 24 13 31 0 14 31 33 55 33 23 0 65 -45 65 -71 0 -12 -17
-38 -38 -59 -123 -123 -319 -34 -315 142 1 48 6 64 32 97 33 41 46 48 157 80
82 24 120 56 130 110 7 33 -4 111 -22 155 -7 19 -7 19 24 1 17 -10 41 -32 53
-49z m-1960 -2598 c69 -32 155 -117 191 -189 15 -30 39 -97 53 -149 43 -156
93 -274 143 -332 51 -60 62 -85 62 -137 0 -110 -95 -216 -229 -255 -94 -27
-170 -17 -247 35 -116 79 -163 222 -112 342 l23 52 7 -50 c5 -38 14 -57 38
-77 35 -32 44 -33 116 -12 54 16 104 59 104 91 0 28 -47 99 -85 127 -88 67
-204 89 -274 52 -120 -64 -144 -216 -63 -400 12 -27 22 -50 22 -52 0 -9 -117
72 -154 105 -76 70 -126 173 -126 257 0 49 38 131 76 165 70 62 141 89 248 90
54 1 76 -4 128 -29 35 -17 78 -43 96 -58 30 -25 32 -25 32 -6 0 39 -37 139
-68 185 -20 28 -55 60 -93 83 -57 34 -65 36 -120 31 -69 -6 -129 -38 -203
-106 l-49 -46 7 45 c26 168 166 274 351 267 50 -2 86 -10 126 -29z m2239 -889
c72 -38 171 -132 228 -216 l41 -61 61 25 c74 30 189 44 245 30 127 -32 226
-182 195 -296 -11 -41 -49 -94 -79 -110 -14 -8 -16 -1 -16 54 0 74 -20 109
-78 138 -49 25 -136 26 -171 4 -38 -25 -47 -56 -56 -183 -5 -87 -12 -122 -33
-167 -46 -100 -110 -163 -207 -201 -76 -31 -153 -36 -300 -19 -233 26 -327 9
-378 -67 -33 -48 -25 -96 26 -163 90 -120 117 -196 109 -303 -7 -95 -46 -166
-129 -235 -72 -60 -119 -84 -199 -105 -204 -52 -403 125 -321 285 21 43 38 49
46 18 3 -14 22 -39 42 -57 35 -31 40 -32 107 -28 66 4 71 6 107 45 117 125 42
273 -137 273 -152 0 -303 -81 -357 -193 -51 -105 -41 -229 30 -377 19 -40 33
-74 31 -76 -11 -11 -137 66 -182 111 -96 96 -131 223 -106 385 31 199 224 368
423 371 l53 0 -37 14 c-59 22 -185 37 -241 30 -134 -19 -238 -93 -287 -207
-14 -32 -29 -56 -35 -54 -17 5 -46 96 -52 160 -6 73 21 158 70 213 140 159
560 151 695 -13 l29 -35 12 43 c30 101 92 177 177 219 47 23 57 24 269 25 151
0 236 4 270 14 176 47 277 178 262 341 -4 48 -12 69 -35 98 -39 48 -100 81
-165 88 -48 5 -55 3 -85 -25 -25 -23 -32 -38 -32 -67 0 -60 27 -95 103 -136
22 -11 37 -23 34 -25 -2 -3 -41 0 -86 5 -181 23 -260 96 -261 237 0 75 18 122
65 167 78 75 221 87 335 26z"/>
<path d="M2370 10375 c-24 -28 -68 -45 -188 -72 -154 -33 -225 -66 -282 -130
-39 -43 -100 -146 -100 -169 0 -4 12 4 28 18 47 45 92 61 187 68 73 6 102 13
154 40 80 40 159 118 195 193 28 57 31 82 6 52z"/>
<path d="M1013 9650 c-88 -50 -135 -149 -99 -205 20 -30 61 -33 76 -6 16 30
12 79 -6 89 -26 15 -9 61 42 109 24 24 43 43 42 43 -2 0 -27 -14 -55 -30z"/>
<path d="M7687 15319 c126 -21 246 -94 312 -189 80 -117 121 -289 92 -392 -15
-54 -68 -127 -109 -151 l-31 -17 26 62 c36 88 36 177 -1 251 -100 204 -429
282 -595 141 -77 -66 -107 -161 -98 -313 10 -187 87 -307 220 -343 39 -10 54
-9 101 5 102 32 216 42 336 29 59 -7 134 -20 166 -30 l59 -18 -80 -28 c-281
-99 -459 -259 -520 -469 -29 -102 -20 -107 60 -35 217 196 424 315 665 381
212 59 522 45 686 -29 l39 -18 -135 -7 c-193 -10 -291 -33 -433 -106 -87 -43
-229 -164 -214 -180 3 -2 54 5 113 16 192 35 295 45 499 45 304 0 566 -45 820
-139 113 -42 335 -153 380 -190 l30 -24 -90 24 c-220 58 -469 61 -740 9 -44
-9 -84 -19 -88 -23 -4 -4 29 -13 75 -19 180 -26 430 -98 615 -179 245 -107
491 -279 634 -444 85 -97 259 -351 322 -469 155 -291 245 -618 270 -980 2 -25
4 829 5 1898 l2 1942 -1722 -1 c-1012 -1 -1702 -5 -1671 -10z"/>
<path d="M8400 13705 c-467 -57 -893 -243 -1220 -534 l-45 -40 145 51 c266 92
583 162 843 188 158 16 473 14 602 -4 128 -17 256 -45 370 -80 l80 -25 -45 40
c-148 132 -373 236 -516 240 -22 1 -50 4 -63 8 l-25 7 39 43 c40 44 86 72 170
102 l50 18 -140 -1 c-77 0 -187 -6 -245 -13z"/>
<path d="M8120 13093 c-346 -34 -557 -74 -800 -155 -745 -246 -1284 -734
-1685 -1523 -188 -371 -285 -692 -315 -1045 -22 -254 14 -541 93 -733 l24 -58
79 63 c306 245 514 342 793 368 215 20 420 -14 555 -92 92 -53 216 -180 279
-285 44 -74 112 -222 104 -229 -2 -2 -27 16 -57 39 -130 101 -278 175 -425
213 -137 35 -382 44 -536 20 -358 -58 -554 -217 -749 -606 -86 -171 -136 -323
-236 -720 -145 -577 -273 -920 -416 -1117 -122 -168 -336 -343 -530 -432 -116
-53 -299 -125 -388 -151 -181 -54 -289 -71 -480 -77 l-185 -6 70 -24 c416
-143 754 -120 1089 74 427 246 786 652 905 1024 38 121 54 202 91 487 79 596
166 861 347 1048 113 118 327 247 493 298 320 97 660 17 937 -222 29 -25 51
-47 49 -50 -2 -2 -42 8 -87 23 -102 32 -271 62 -404 70 -177 12 -424 -26 -559
-86 -177 -78 -315 -239 -386 -449 -48 -143 -52 -179 -60 -575 -14 -681 -49
-802 -335 -1150 -217 -265 -659 -681 -874 -823 -172 -115 -346 -174 -568 -195
-105 -9 -144 -8 -275 7 -503 59 -791 214 -918 495 -34 74 -35 172 -3 217 26
36 92 70 152 80 23 4 41 10 41 14 0 4 -19 20 -42 36 -37 26 -50 29 -118 29
-68 0 -81 -3 -118 -28 -79 -56 -130 -170 -139 -318 -15 -234 89 -408 317 -532
73 -40 208 -89 290 -106 l55 -11 17 -87 c26 -135 72 -216 191 -340 319 -331
575 -441 1242 -533 494 -68 589 -92 785 -197 274 -146 475 -357 645 -673 89
-167 145 -224 239 -241 70 -13 135 30 180 119 48 94 44 180 -10 262 -35 52
-139 126 -224 159 l-74 29 49 8 c111 16 254 -25 340 -99 47 -40 125 -166 157
-252 19 -49 23 -80 23 -175 0 -112 -1 -117 -37 -192 -105 -221 -339 -313 -563
-223 -169 68 -280 202 -321 386 -36 161 -43 179 -90 226 -25 24 -71 57 -102
71 -48 23 -71 27 -143 27 -78 0 -90 -3 -135 -30 -94 -57 -131 -193 -87 -321
23 -68 116 -159 208 -205 65 -32 72 -38 112 -109 179 -317 150 -690 -82 -1055
-106 -165 -140 -291 -151 -550 -10 -230 15 -393 103 -660 112 -342 259 -599
449 -788 305 -303 778 -431 1154 -311 41 13 75 22 77 21 6 -7 -97 -76 -149
-99 -55 -25 -166 -54 -238 -61 -19 -2 945 -5 2143 -5 l2177 -2 -1 5553 c-1
3090 -6 5507 -10 5450 -16 -188 -68 -486 -112 -633 -13 -43 -14 -37 -21 130
-18 441 -84 764 -223 1095 -139 328 -327 601 -586 852 -196 189 -384 323 -617
439 -242 120 -455 174 -815 204 -110 9 -493 11 -575 3z m670 -227 c694 -117
1175 -449 1342 -926 149 -427 -6 -947 -352 -1177 -47 -31 -153 -77 -205 -88
-70 -16 -201 -22 -296 -13 -120 10 -208 34 -310 85 -94 47 -220 170 -268 261
-17 34 -29 62 -26 62 4 0 27 -18 53 -39 136 -114 298 -182 437 -184 133 -1
237 44 342 150 153 153 266 404 264 588 -1 207 -115 368 -336 475 -55 27 -110
52 -123 55 l-22 6 24 -45 c53 -101 43 -231 -31 -385 -61 -127 -170 -240 -288
-297 -79 -38 -82 -39 -195 -39 -105 0 -121 3 -179 28 -173 76 -373 252 -440
386 -43 85 -70 216 -53 260 8 23 11 21 48 -40 51 -85 175 -209 239 -239 115
-54 246 -34 368 59 55 41 63 52 73 96 62 267 -101 448 -461 510 -275 48 -704
16 -947 -71 -247 -88 -610 -323 -841 -544 -273 -261 -425 -515 -473 -792 -39
-222 9 -413 128 -516 155 -133 449 -115 621 38 95 84 111 172 47 264 -54 80
-119 111 -213 103 -79 -6 -155 -35 -241 -92 -38 -25 -71 -44 -73 -42 -2 2 6
29 17 61 46 133 106 207 209 254 98 45 275 41 377 -9 53 -25 146 -116 190
-185 123 -192 105 -457 -41 -613 -90 -96 -185 -134 -335 -134 -82 0 -114 6
-230 40 -189 57 -253 67 -379 60 -228 -12 -421 -101 -606 -278 -76 -73 -84
-78 -71 -47 8 19 18 77 21 129 15 220 120 687 211 934 158 431 524 971 861
1273 393 352 926 574 1528 636 98 10 543 -3 635 -18z m783 -5988 c20 -6 37
-14 37 -17 0 -4 -30 -12 -66 -19 -136 -26 -245 -106 -284 -208 -56 -152 17
-381 196 -609 98 -126 125 -170 149 -240 24 -70 34 -199 24 -307 -5 -50 -8
-93 -6 -94 1 -2 34 6 72 17 53 15 92 19 157 17 75 -4 93 -8 134 -34 81 -50
132 -145 150 -282 l7 -53 -64 64 c-87 87 -161 122 -254 122 -101 -1 -178 -46
-268 -156 -73 -90 -88 -134 -97 -290 -9 -169 -32 -230 -119 -312 -61 -57 -220
-145 -349 -191 -98 -35 -120 -47 -165 -93 -47 -46 -70 -90 -91 -170 -26 -98
-22 -112 17 -61 77 102 231 170 414 183 191 14 257 36 312 102 57 68 71 142
69 348 -3 170 -2 183 21 240 61 152 232 228 407 181 118 -31 203 -127 235
-264 19 -81 12 -206 -15 -296 -28 -91 -51 -119 -149 -181 -32 -20 -62 -46 -66
-59 -10 -24 -4 -73 10 -82 5 -3 9 -13 9 -22 0 -10 -3 -13 -8 -7 -4 6 -22 22
-41 34 -39 28 -61 74 -61 131 0 63 21 100 94 164 103 91 123 145 91 254 -48
161 -240 196 -283 52 -6 -19 -13 -91 -16 -160 -6 -129 -26 -219 -79 -367 -41
-113 -72 -167 -122 -211 -62 -54 -125 -71 -299 -82 -78 -5 -159 -14 -181 -20
-93 -27 -165 -92 -220 -200 -52 -102 -57 -135 -65 -450 -4 -162 -12 -311 -18
-330 -30 -104 -91 -199 -189 -290 -86 -81 -198 -168 -190 -149 3 8 19 56 36
107 49 146 64 255 58 417 -7 204 -32 285 -157 514 -91 168 -121 261 -122 386
0 81 4 112 22 160 48 126 139 227 310 345 106 73 240 200 287 273 78 120 121
289 107 422 -14 135 -81 333 -142 420 -17 25 -59 63 -93 85 -56 36 -83 45
-209 68 l-45 9 75 24 c62 20 95 24 195 23 103 0 129 -4 185 -25 132 -50 242
-146 298 -259 24 -50 27 -65 27 -171 l0 -116 23 31 c39 52 71 128 87 201 18
87 18 113 0 198 -19 91 -51 159 -137 290 -123 190 -173 311 -188 462 -18 186
44 340 182 454 111 92 228 117 361 79z m-2698 -352 c22 -9 50 -27 63 -39 25
-23 77 -105 71 -111 -2 -2 -33 2 -69 10 -126 26 -208 13 -265 -44 -44 -45 -70
-126 -85 -269 -17 -161 -49 -248 -117 -324 -38 -42 -96 -77 -148 -89 l-30 -7
49 -23 c40 -18 61 -22 112 -17 72 5 119 30 177 92 l38 40 -6 -40 c-8 -49 -39
-116 -72 -155 -62 -74 -198 -118 -331 -106 -123 11 -191 54 -249 154 -79 138
-130 182 -238 202 -76 14 -138 3 -226 -41 -113 -56 -191 -187 -175 -291 21
-131 156 -262 252 -243 66 12 137 95 153 179 18 98 -25 178 -114 210 l-40 14
30 12 c89 35 215 -47 261 -171 22 -58 22 -199 1 -257 -43 -114 -127 -180 -266
-208 -117 -23 -517 -15 -746 15 -266 35 -518 80 -617 110 -402 122 -691 346
-867 670 -28 52 -51 96 -51 99 0 2 29 -23 64 -56 261 -243 555 -405 831 -454
41 -8 156 -13 280 -13 220 0 310 11 396 47 l46 19 7 85 c19 231 111 406 253
477 126 64 378 105 535 88 197 -22 257 -11 277 52 14 42 1 120 -25 148 -11 12
-37 31 -59 43 l-40 21 53 3 c179 10 320 -136 282 -291 -15 -59 -71 -124 -132
-152 -26 -12 -45 -25 -41 -29 8 -8 71 -8 111 0 38 8 107 65 128 106 8 16 30
102 48 191 35 174 55 224 108 273 99 93 260 122 383 70z m-2388 -518 c90 -22
167 -131 148 -207 -9 -37 -36 -91 -45 -91 -4 0 -10 17 -13 39 -7 56 -36 110
-67 126 -42 22 -135 33 -187 24 -26 -5 -67 -21 -92 -36 l-46 -28 65 -6 c75 -6
98 -17 134 -59 44 -53 62 -174 32 -215 -12 -17 -15 -14 -29 36 -16 53 -44 90
-79 102 -10 4 -69 1 -132 -5 -268 -25 -500 41 -605 172 -33 41 -33 43 -10 36
136 -39 182 -47 274 -48 127 -1 202 19 325 84 158 84 230 101 327 76z m4060
-539 c102 -49 175 -148 213 -289 27 -101 31 -145 20 -218 -31 -193 -183 -370
-450 -524 -93 -54 -184 -167 -222 -278 -19 -53 -23 -86 -23 -185 0 -174 33
-273 201 -605 133 -262 157 -378 119 -575 -15 -78 -70 -249 -109 -338 l-22
-50 48 -45 c111 -104 150 -258 108 -427 -25 -103 -44 -138 -101 -190 -56 -50
-102 -68 -174 -67 -162 3 -277 116 -230 228 16 38 52 84 66 84 4 0 13 -16 19
-35 20 -61 71 -72 120 -27 58 51 58 147 -1 196 -25 21 -41 26 -87 26 -106 -1
-190 -62 -218 -158 -20 -69 -12 -130 32 -245 41 -108 54 -181 54 -313 0 -259
-88 -556 -227 -767 -153 -231 -339 -344 -666 -403 -125 -23 -383 -23 -494 -1
-517 104 -829 495 -939 1177 -25 156 -23 468 4 620 28 156 64 273 124 410 28
63 61 149 75 190 33 103 63 279 63 371 0 164 -68 383 -162 522 -23 34 -99 118
-169 187 -79 77 -130 136 -134 153 -12 45 3 94 36 121 57 48 120 46 185 -5 49
-38 76 -83 113 -184 76 -207 158 -344 266 -443 94 -86 151 -107 280 -106 115
0 201 26 306 90 81 49 185 155 214 218 l23 51 1 -36 c2 -57 -29 -218 -56 -294
-83 -235 -223 -345 -436 -345 -45 0 -108 6 -139 14 l-56 13 -7 -36 c-13 -75
-88 -370 -117 -461 -17 -52 -63 -165 -103 -250 -98 -209 -118 -331 -96 -589
29 -330 84 -522 204 -704 242 -370 618 -496 1104 -368 86 23 169 78 291 195
183 176 266 335 264 511 -2 177 -106 369 -343 630 -155 171 -217 271 -239 383
-22 111 3 267 55 342 23 34 84 84 92 76 1 -1 -7 -27 -19 -57 -15 -38 -22 -77
-22 -134 -1 -104 22 -147 122 -228 86 -70 166 -166 227 -272 24 -42 46 -72 49
-67 13 22 17 142 6 202 -16 91 -49 158 -120 245 -81 99 -104 152 -97 221 7 73
42 127 166 261 227 243 229 272 53 522 l-17 24 50 -6 c171 -21 298 -112 351
-252 14 -37 19 -76 19 -146 0 -94 -1 -97 -49 -195 -42 -87 -60 -110 -142 -190
-104 -101 -129 -143 -114 -194 32 -110 129 -150 221 -91 146 95 259 333 259
549 0 96 -27 193 -105 372 -162 375 -197 479 -215 641 -18 160 9 319 77 454
110 218 177 280 418 391 128 58 245 265 245 433 0 101 -56 218 -129 268 -22
16 -40 32 -41 36 0 14 61 -3 127 -34z m964 -1764 c17 -9 29 -18 27 -21 -3 -2
-39 -13 -82 -24 -105 -27 -200 -74 -259 -129 -100 -93 -111 -176 -47 -350 121
-329 86 -494 -139 -663 -28 -21 -57 -57 -79 -96 -46 -84 -37 -94 60 -62 95 32
199 33 248 4 45 -26 78 -86 86 -157 l7 -57 -67 25 c-129 48 -231 43 -273 -13
-11 -15 -37 -70 -58 -122 -213 -535 -505 -680 -875 -435 -46 30 -50 35 -25 30
183 -40 307 -19 432 76 65 49 149 166 168 233 46 166 18 319 -71 383 l-27 20
89 61 c239 163 373 323 374 443 0 25 -19 110 -42 190 -39 132 -43 154 -43 259
0 140 11 168 101 255 68 66 190 134 284 160 66 18 166 13 211 -10z m-1384
-2248 c104 -66 264 -74 437 -23 105 31 231 88 263 118 36 34 27 10 -18 -48
-66 -86 -160 -154 -246 -178 -91 -26 -181 -28 -253 -6 -36 11 -70 20 -76 20
-7 0 -13 -27 -16 -64 -11 -138 -127 -285 -268 -340 -25 -10 -51 -21 -58 -23
-8 -3 2 26 22 65 112 222 145 425 91 548 l-25 57 53 -50 c29 -27 71 -62 94
-76z m-973 -86 c56 -37 113 -127 130 -206 25 -121 -22 -252 -131 -356 -124
-120 -272 -162 -485 -139 -127 14 -230 47 -333 105 -248 141 -398 353 -412
580 l-5 80 40 -71 c93 -167 223 -309 334 -365 77 -39 182 -57 237 -40 118 35
157 143 112 314 -9 37 -16 67 -14 67 17 0 85 -46 115 -77 87 -90 94 -198 23
-365 -6 -16 -1 -18 35 -18 62 0 159 28 202 57 50 34 95 104 104 162 13 86 -33
224 -111 333 -19 26 -35 50 -35 52 0 5 130 -71 194 -113z"/>
<path d="M3255 9782 c-67 -22 -149 -103 -165 -163 -7 -25 -10 -70 -7 -104 6
-64 13 -87 84 -284 62 -172 84 -276 85 -390 1 -106 -6 -142 -59 -280 -85 -222
-282 -556 -546 -925 -59 -81 -107 -152 -107 -157 0 -18 68 -42 138 -48 l74 -6
-165 -160 c-146 -142 -170 -169 -199 -230 -42 -90 -50 -207 -20 -300 l19 -60
8 75 c21 208 87 300 348 484 174 123 290 271 311 398 l7 37 -97 -40 c-54 -21
-99 -39 -101 -39 -19 0 61 177 152 336 37 66 120 200 183 298 161 251 207 359
232 545 12 92 2 217 -26 312 -21 69 -35 97 -85 162 -54 71 -82 147 -83 227 -1
115 52 167 162 158 89 -8 108 -52 81 -189 -14 -73 -2 -104 46 -118 23 -6 46
-6 61 -1 173 66 144 290 -54 417 -97 62 -183 76 -277 45z"/>
<path d="M2433 5982 c-62 -139 -83 -223 -83 -342 l0 -85 34 50 c71 104 168
150 299 143 l79 -5 -34 26 c-60 46 -179 165 -223 223 l-43 57 -29 -67z"/>
<path d="M3246 5395 c59 -159 58 -320 -3 -402 -29 -40 -29 -43 1 -43 13 0 53
-9 88 -20 82 -25 144 -77 155 -128 4 -20 7 -39 6 -42 0 -3 -3 -18 -7 -33 l-7
-29 33 25 c104 78 243 129 354 131 l71 1 -86 46 c-232 122 -434 290 -597 494
l-16 20 8 -20z"/>
<path d="M4500 4738 c-63 -4 -126 -10 -138 -13 l-24 -6 25 -19 c13 -11 32 -35
41 -53 l16 -34 102 -6 c220 -12 391 -93 470 -222 17 -27 32 -52 34 -54 2 -2
17 9 35 23 41 34 92 61 149 76 52 14 161 14 210 0 l34 -10 -45 46 c-88 91
-257 186 -400 227 -146 41 -319 57 -509 45z"/>
</g>
</svg>
